<mxfile host="app.diagrams.net" agent="Mozilla/5.0 (Windows NT 10.0; Win64; x64) AppleWebKit/537.36 (KHTML, like Gecko) Chrome/130.0.0.0 Safari/537.36" version="24.7.17">
  <diagram name="Page-1" id="AydFIcCxhgPMipCwn81_">
    <mxGraphModel dx="1050" dy="522" grid="1" gridSize="10" guides="1" tooltips="1" connect="1" arrows="1" fold="1" page="1" pageScale="1" pageWidth="850" pageHeight="1100" math="0" shadow="0">
      <root>
        <mxCell id="0" />
        <mxCell id="1" parent="0" />
        <mxCell id="OiHW-WUKHezU2nJ4c9Ax-16" style="edgeStyle=orthogonalEdgeStyle;rounded=0;orthogonalLoop=1;jettySize=auto;html=1;entryX=0.5;entryY=0;entryDx=0;entryDy=0;" edge="1" parent="1" source="OiHW-WUKHezU2nJ4c9Ax-1" target="OiHW-WUKHezU2nJ4c9Ax-2">
          <mxGeometry relative="1" as="geometry" />
        </mxCell>
        <mxCell id="OiHW-WUKHezU2nJ4c9Ax-1" value="CAR VIEWER" style="rounded=0;whiteSpace=wrap;html=1;" vertex="1" parent="1">
          <mxGeometry x="330" y="20" width="120" height="60" as="geometry" />
        </mxCell>
        <mxCell id="OiHW-WUKHezU2nJ4c9Ax-11" style="edgeStyle=orthogonalEdgeStyle;rounded=0;orthogonalLoop=1;jettySize=auto;html=1;entryX=0.5;entryY=0;entryDx=0;entryDy=0;" edge="1" parent="1" source="OiHW-WUKHezU2nJ4c9Ax-2" target="OiHW-WUKHezU2nJ4c9Ax-4">
          <mxGeometry relative="1" as="geometry" />
        </mxCell>
        <mxCell id="OiHW-WUKHezU2nJ4c9Ax-12" style="edgeStyle=orthogonalEdgeStyle;rounded=0;orthogonalLoop=1;jettySize=auto;html=1;entryX=0.5;entryY=0;entryDx=0;entryDy=0;" edge="1" parent="1" source="OiHW-WUKHezU2nJ4c9Ax-2" target="OiHW-WUKHezU2nJ4c9Ax-3">
          <mxGeometry relative="1" as="geometry" />
        </mxCell>
        <mxCell id="OiHW-WUKHezU2nJ4c9Ax-13" style="edgeStyle=orthogonalEdgeStyle;rounded=0;orthogonalLoop=1;jettySize=auto;html=1;entryX=0.5;entryY=0;entryDx=0;entryDy=0;" edge="1" parent="1" source="OiHW-WUKHezU2nJ4c9Ax-2" target="OiHW-WUKHezU2nJ4c9Ax-5">
          <mxGeometry relative="1" as="geometry" />
        </mxCell>
        <mxCell id="OiHW-WUKHezU2nJ4c9Ax-14" style="edgeStyle=orthogonalEdgeStyle;rounded=0;orthogonalLoop=1;jettySize=auto;html=1;entryX=0.5;entryY=0;entryDx=0;entryDy=0;" edge="1" parent="1" source="OiHW-WUKHezU2nJ4c9Ax-2" target="OiHW-WUKHezU2nJ4c9Ax-6">
          <mxGeometry relative="1" as="geometry" />
        </mxCell>
        <mxCell id="OiHW-WUKHezU2nJ4c9Ax-2" value="CAR MODEL" style="rounded=0;whiteSpace=wrap;html=1;" vertex="1" parent="1">
          <mxGeometry x="330" y="110" width="120" height="60" as="geometry" />
        </mxCell>
        <mxCell id="OiHW-WUKHezU2nJ4c9Ax-3" value="WHEEL TYPE" style="rounded=0;whiteSpace=wrap;html=1;" vertex="1" parent="1">
          <mxGeometry x="140" y="210" width="120" height="60" as="geometry" />
        </mxCell>
        <mxCell id="OiHW-WUKHezU2nJ4c9Ax-4" value="PAINT COLOUR" style="rounded=0;whiteSpace=wrap;html=1;" vertex="1" parent="1">
          <mxGeometry x="330" y="210" width="120" height="60" as="geometry" />
        </mxCell>
        <mxCell id="OiHW-WUKHezU2nJ4c9Ax-5" value="NUMBER OF DOORS" style="rounded=0;whiteSpace=wrap;html=1;" vertex="1" parent="1">
          <mxGeometry x="500" y="210" width="120" height="60" as="geometry" />
        </mxCell>
        <mxCell id="OiHW-WUKHezU2nJ4c9Ax-6" value="INTERIOR SPECIFICATION" style="rounded=0;whiteSpace=wrap;html=1;" vertex="1" parent="1">
          <mxGeometry x="660" y="210" width="120" height="60" as="geometry" />
        </mxCell>
        <mxCell id="OiHW-WUKHezU2nJ4c9Ax-7" value="STERIO SYSTEM" style="rounded=0;whiteSpace=wrap;html=1;" vertex="1" parent="1">
          <mxGeometry x="570" y="310" width="120" height="60" as="geometry" />
        </mxCell>
        <mxCell id="OiHW-WUKHezU2nJ4c9Ax-8" value="SEAT TYPE" style="rounded=0;whiteSpace=wrap;html=1;" vertex="1" parent="1">
          <mxGeometry x="730" y="310" width="120" height="60" as="geometry" />
        </mxCell>
        <mxCell id="OiHW-WUKHezU2nJ4c9Ax-9" style="edgeStyle=orthogonalEdgeStyle;rounded=0;orthogonalLoop=1;jettySize=auto;html=1;entryX=0.633;entryY=0.12;entryDx=0;entryDy=0;entryPerimeter=0;" edge="1" parent="1" source="OiHW-WUKHezU2nJ4c9Ax-6" target="OiHW-WUKHezU2nJ4c9Ax-8">
          <mxGeometry relative="1" as="geometry" />
        </mxCell>
        <mxCell id="OiHW-WUKHezU2nJ4c9Ax-10" style="edgeStyle=orthogonalEdgeStyle;rounded=0;orthogonalLoop=1;jettySize=auto;html=1;entryX=0.627;entryY=-0.053;entryDx=0;entryDy=0;entryPerimeter=0;" edge="1" parent="1" source="OiHW-WUKHezU2nJ4c9Ax-6" target="OiHW-WUKHezU2nJ4c9Ax-7">
          <mxGeometry relative="1" as="geometry" />
        </mxCell>
      </root>
    </mxGraphModel>
  </diagram>
</mxfile>
